# 3ds Max Wavefront OBJ Exporter v0.97b - (c)2007 guruware
# File Created: 06.04.2018 20:07:38

mtllib TestBuilding.mtl

#
# object Plane001
#

v  -24.6035 53.3307 2.4469
v  -24.6035 53.3307 -5.0531
v  -22.3535 53.3307 -5.0531
v  -22.3535 53.3307 2.4469
v  -20.1035 53.3307 -5.0531
v  -20.1035 53.3307 2.4469
v  -17.8535 53.3307 -5.0531
v  -17.8535 53.3307 2.4469
v  -15.6035 53.3307 -5.0531
v  -15.6035 53.3307 2.4469
v  -24.6035 53.3307 9.9469
v  -22.3535 53.3307 9.9469
v  -20.1035 53.3307 9.9469
v  -17.8535 53.3307 9.9469
v  -15.6035 53.3307 9.9469
v  -24.6035 53.3307 17.4469
v  -22.3535 53.3307 17.4469
v  -20.1035 53.3307 17.4469
v  -17.8535 53.3307 17.4469
v  -15.6035 53.3307 17.4469
v  -24.6035 53.3307 24.9469
v  -22.3535 53.3307 24.9469
v  -20.1035 53.3307 24.9469
v  -17.8535 53.3307 24.9469
v  -15.6035 53.3307 24.9469
# 25 vertices

vn 0.0000 -1.0000 -0.0000
# 1 vertex normals

vt 0.0000 0.2500 0.0000
vt 0.0000 0.0000 0.0000
vt 0.2500 0.0000 0.0000
vt 0.2500 0.2500 0.0000
vt 0.5000 0.0000 0.0000
vt 0.5000 0.2500 0.0000
vt 0.7500 0.0000 0.0000
vt 0.7500 0.2500 0.0000
vt 1.0000 0.0000 0.0000
vt 1.0000 0.2500 0.0000
vt 0.0000 0.5000 0.0000
vt 0.2500 0.5000 0.0000
vt 0.5000 0.5000 0.0000
vt 0.7500 0.5000 0.0000
vt 1.0000 0.5000 0.0000
vt 0.0000 0.7500 0.0000
vt 0.2500 0.7500 0.0000
vt 0.5000 0.7500 0.0000
vt 0.7500 0.7500 0.0000
vt 1.0000 0.7500 0.0000
vt 0.0000 1.0000 0.0000
vt 0.2500 1.0000 0.0000
vt 0.5000 1.0000 0.0000
vt 0.7500 1.0000 0.0000
vt 1.0000 1.0000 0.0000
# 25 texture coords

o Plane001
g Plane001
usemtl Material__25
s 1
f 1/1/1 2/2/1 3/3/1 4/4/1 
f 4/4/1 3/3/1 5/5/1 6/6/1 
f 6/6/1 5/5/1 7/7/1 8/8/1 
f 8/8/1 7/7/1 9/9/1 10/10/1 
f 11/11/1 1/1/1 4/4/1 12/12/1 
f 12/12/1 4/4/1 6/6/1 13/13/1 
f 13/13/1 6/6/1 8/8/1 14/14/1 
f 14/14/1 8/8/1 10/10/1 15/15/1 
f 16/16/1 11/11/1 12/12/1 17/17/1 
f 17/17/1 12/12/1 13/13/1 18/18/1 
f 18/18/1 13/13/1 14/14/1 19/19/1 
f 19/19/1 14/14/1 15/15/1 20/20/1 
f 21/21/1 16/16/1 17/17/1 22/22/1 
f 22/22/1 17/17/1 18/18/1 23/23/1 
f 23/23/1 18/18/1 19/19/1 24/24/1 
f 24/24/1 19/19/1 20/20/1 25/25/1 
# 16 polygons

#
# object Plane002
#

v  -38.8464 40.4937 2.4045
v  -38.8464 40.4937 -5.0955
v  -38.8206 38.2439 -5.0955
v  -38.8206 38.2439 2.4045
v  -38.7949 35.9940 -5.0955
v  -38.7949 35.9940 2.4045
v  -38.7692 33.7442 -5.0955
v  -38.7692 33.7442 2.4045
v  -38.7434 31.4943 -5.0955
v  -38.7434 31.4943 2.4045
v  -38.8464 40.4937 9.9045
v  -38.8206 38.2439 9.9045
v  -38.7949 35.9940 9.9045
v  -38.7692 33.7442 9.9045
v  -38.7435 31.4943 9.9045
v  -38.8464 40.4937 17.4045
v  -38.8206 38.2439 17.4045
v  -38.7949 35.9940 17.4045
v  -38.7692 33.7442 17.4045
v  -38.7435 31.4943 17.4045
v  -38.8464 40.4937 24.9045
v  -38.8206 38.2439 24.9045
v  -38.7949 35.9940 24.9045
v  -38.7692 33.7442 24.9045
v  -38.7435 31.4943 24.9045
# 25 vertices

vn -0.9999 -0.0114 -0.0000
# 1 vertex normals

vt 0.0000 0.2500 0.0000
vt 0.0000 0.0000 0.0000
vt 0.2500 0.0000 0.0000
vt 0.2500 0.2500 0.0000
vt 0.5000 0.0000 0.0000
vt 0.5000 0.2500 0.0000
vt 0.7500 0.0000 0.0000
vt 0.7500 0.2500 0.0000
vt 1.0000 0.0000 0.0000
vt 1.0000 0.2500 0.0000
vt 0.0000 0.5000 0.0000
vt 0.2500 0.5000 0.0000
vt 0.5000 0.5000 0.0000
vt 0.7500 0.5000 0.0000
vt 1.0000 0.5000 0.0000
vt 0.0000 0.7500 0.0000
vt 0.2500 0.7500 0.0000
vt 0.5000 0.7500 0.0000
vt 0.7500 0.7500 0.0000
vt 1.0000 0.7500 0.0000
vt 0.0000 1.0000 0.0000
vt 0.2500 1.0000 0.0000
vt 0.5000 1.0000 0.0000
vt 0.7500 1.0000 0.0000
vt 1.0000 1.0000 0.0000
# 25 texture coords

o Plane002
g Plane002
usemtl Material__26
s 1
f 26/26/2 27/27/2 28/28/2 29/29/2 
f 29/29/2 28/28/2 30/30/2 31/31/2 
f 31/31/2 30/30/2 32/32/2 33/33/2 
f 33/33/2 32/32/2 34/34/2 35/35/2 
f 36/36/2 26/26/2 29/29/2 37/37/2 
f 37/37/2 29/29/2 31/31/2 38/38/2 
f 38/38/2 31/31/2 33/33/2 39/39/2 
f 39/39/2 33/33/2 35/35/2 40/40/2 
f 41/41/2 36/36/2 37/37/2 42/42/2 
f 42/42/2 37/37/2 38/38/2 43/43/2 
f 43/43/2 38/38/2 39/39/2 44/44/2 
f 44/44/2 39/39/2 40/40/2 45/45/2 
f 46/46/2 41/41/2 42/42/2 47/47/2 
f 47/47/2 42/42/2 43/43/2 48/48/2 
f 48/48/2 43/43/2 44/44/2 49/49/2 
f 49/49/2 44/44/2 45/45/2 50/50/2 
# 16 polygons

#
# object Box001
#

#
# object RDC
#

v  -21.0337 35.4339 0.0099
v  -19.6414 35.4339 0.0099
v  -19.6414 35.4339 3.7081
v  -21.0337 35.4339 3.7081
v  -21.4023 39.1411 0.0099
v  -21.4023 39.1411 4.9933
v  -17.0323 39.1469 4.9999
v  -17.0485 39.1496 0.0353
v  -21.4023 33.4339 0.0099
v  -17.0487 33.4439 0.0376
v  -19.5321 33.4339 0.0099
v  -19.6414 33.4339 0.0099
v  -21.0337 33.4339 0.0099
v  -21.1243 33.4396 0.0099
v  -17.0325 33.4413 5.0023
v  -21.4023 33.4339 5.0005
v  -21.1243 33.4396 4.9933
v  -21.0337 33.4339 4.9933
v  -19.6414 33.4339 4.9933
v  -19.5323 33.4354 4.9957
v  -19.5321 33.4339 3.7909
v  -19.6414 33.4339 3.7918
v  -21.1242 33.4388 3.7916
v  -21.0337 33.4339 3.7922
v  -19.6414 33.4339 3.7081
v  -21.0337 33.4339 3.7081
v  -21.1243 33.4395 3.7057
v  -19.6414 33.4339 3.7092
v  -19.5321 33.4339 3.7092
# 29 vertices

vn 0.5774 -0.5774 0.5774
vn -0.5774 -0.5774 0.5774
vn -0.5774 -0.5774 -0.5774
vn 0.5774 -0.5774 -0.5774
vn -0.5763 0.5764 -0.5793
vn -0.5782 0.5773 0.5765
vn 0.5777 0.5775 0.5769
vn 0.5773 0.5785 -0.5763
vn -0.5719 -0.5838 -0.5763
vn 0.5803 -0.5769 -0.5748
vn 0.0058 -0.1730 -0.9849
vn -0.7436 0.6392 0.1963
vn 0.5605 -0.5968 -0.5742
vn -0.0153 -0.7161 0.6978
vn 0.5784 -0.5761 0.5775
vn -0.5651 -0.5819 0.5848
vn -0.0246 -0.8121 -0.5830
vn -0.0226 -0.7137 0.7001
vn 0.0037 -0.9599 0.2803
vn 0.0139 -0.2733 -0.9618
vn 0.0014 -1.0000 0.0005
vn -0.0000 -1.0000 -0.0000
vn -0.0348 -0.9994 -0.0057
vn -0.0270 -0.9996 -0.0000
vn -0.3015 -0.9045 -0.3015
vn 0.2674 -0.9140 -0.3051
vn 0.0335 -0.9994 -0.0061
vn 0.0020 -1.0000 -0.0000
# 28 vertex normals

vt 0.6667 0.0000 0.0000
vt 0.3333 0.0000 0.0000
vt 0.3333 0.5000 0.0000
vt 0.6667 0.5000 0.0000
vt 0.0000 0.0000 0.0000
vt 0.0000 1.0000 0.0000
vt 1.0000 1.0000 0.0000
vt 1.0000 0.0000 0.0000
vt 0.8333 0.0000 0.0000
vt 0.1667 0.0000 0.0000
vt 0.1667 0.7573 0.0000
vt 0.1667 1.0000 0.0000
vt 0.3333 1.0000 0.0000
vt 0.3333 0.5298 0.0000
vt 0.6667 1.0000 0.0000
vt 0.8333 1.0000 0.0000
vt 0.8333 0.7599 0.0000
vt 0.6667 0.5341 0.0000
vt 0.8333 0.7406 0.0000
vt 0.3333 0.5004 0.0000
vt 0.1667 0.7409 0.0000
# 21 texture coords

o RDC
g RDC
usemtl wire_088177027
s 2
f 51/51/3 52/52/4 53/53/5 54/54/6 
s 4
f 55/55/7 56/56/8 57/57/9 58/58/10 
s 8
f 59/55/11 55/56/7 58/57/10 60/58/12 61/59/13 62/51/14 63/52/15 64/60/16 
s 16
f 60/55/12 58/56/10 57/57/9 65/58/17 
s 32
f 65/55/17 57/56/9 56/57/8 66/58/18 67/59/19 68/51/20 69/52/21 70/60/22 
s 64
f 66/55/18 56/56/8 55/57/7 59/58/11 
s 2
f 71/61/23 70/62/22 69/63/21 72/64/24 
f 68/65/20 67/66/19 73/67/25 74/68/26 
f 72/64/24 69/63/21 68/65/20 74/68/26 
s off
f 63/51/15 62/52/14 52/52/4 51/51/3 
f 62/52/14 75/53/27 53/53/5 52/52/4 
f 75/53/27 76/54/28 54/54/6 53/53/5 
f 76/54/28 63/51/15 51/51/3 54/54/6 
s 2
f 59/58/11 64/59/16 77/69/29 
f 65/56/17 70/62/22 71/61/23 
f 73/67/25 77/69/29 76/54/28 74/68/26 
f 74/68/26 76/54/28 78/70/24 72/64/24 
f 72/64/24 78/70/24 79/71/30 71/61/23 
f 71/61/23 79/71/30 60/55/12 65/56/17 
f 73/67/25 67/66/19 66/57/18 
f 77/69/29 64/59/16 63/51/15 76/54/28 
f 76/54/28 75/53/27 78/70/24 
f 78/70/24 75/53/27 62/52/14 61/60/13 79/71/30 
f 77/69/29 73/67/25 66/57/18 59/58/11 
f 79/71/30 61/60/13 60/55/12 
# 20 polygons - 5 triangles

#
# object 1er_étage
#

v  -21.3935 33.4250 10.0694
v  -18.5005 33.4250 10.0694
v  -18.4964 39.1351 10.0694
v  -21.3935 39.1351 10.0694
v  -21.3935 33.4250 5.0091
v  -21.3935 39.1351 5.0091
v  -17.0538 39.1451 5.0400
v  -17.0538 36.4379 5.0254
v  -17.0538 33.4250 5.0091
v  -18.5005 33.4250 5.0091
v  -21.0829 33.4250 9.5262
v  -17.0538 39.1351 10.0694
v  -17.8161 39.1351 10.0694
v  -17.0538 33.4351 5.8468
v  -18.5120 33.4306 5.8458
v  -17.0538 36.4351 5.8468
v  -17.0538 36.4251 9.5075
v  -17.7544 36.4250 9.5073
v  -18.5120 36.4306 9.5374
v  -18.5120 36.4306 5.8458
v  -17.0538 33.4251 9.5075
v  -17.0538 33.4250 10.0694
v  -17.8134 33.4250 10.0694
v  -17.8129 33.4262 9.5318
v  -17.8116 33.4302 9.5073
v  -18.5000 33.4262 9.5450
v  -18.5018 33.4310 9.5235
v  -17.0563 36.4267 10.0694
v  -17.0538 36.4362 9.5054
# 29 vertices

vn -0.5774 -0.5774 0.5774
vn -0.0000 -0.7079 0.7063
vn -0.0008 0.7068 0.7075
vn -0.5774 0.5774 0.5774
vn -0.5774 -0.5774 -0.5774
vn -0.5761 0.5763 -0.5797
vn 0.5788 0.5805 -0.5728
vn 0.7084 0.0019 -0.7059
vn 0.5764 -0.5797 -0.5759
vn 0.0039 -0.7077 -0.7065
vn 0.0002 -1.0000 0.0001
vn 0.5775 0.5767 0.5779
vn 0.5786 -0.5725 0.5809
vn 0.7965 0.3935 0.4590
vn 0.9051 -0.3014 0.2999
vn 0.9051 -0.3015 -0.2997
vn -0.0128 0.6341 -0.7732
vn 0.5657 -0.5755 -0.5906
vn 0.5780 -0.5763 0.5777
vn 0.5756 -0.5795 -0.5770
vn 0.5776 -0.5772 0.5773
vn 0.5732 -0.8176 -0.0540
vn -0.0115 -0.6443 -0.7647
vn -0.0005 -0.9940 -0.1091
vn 0.9078 -0.0990 -0.4076
vn 0.7089 -0.0000 -0.7053
vn 1.0000 0.0000 0.0000
# 27 vertex normals

vt 1.0000 0.0000 0.0000
vt 0.5000 0.0000 0.0000
vt 0.3324 1.0000 0.0000
vt 1.0000 1.0000 0.0000
vt 0.0000 0.0000 0.0000
vt 0.0000 1.0000 0.0000
vt 1.0000 0.5267 0.0000
vt 0.5000 1.0000 0.0000
vt 0.0537 0.1073 0.0000
vt 0.3324 0.0000 0.0000
vt 0.1757 0.0000 0.0000
vt 1.0000 0.5000 0.0000
vt 0.5000 0.5000 0.0000
vt 1.0000 0.2500 0.0000
vt 0.7500 0.2500 0.0000
vt 0.5000 0.2500 0.0000
vt 0.7500 0.0000 0.0000
vt 0.7500 0.1250 0.0000
vt 0.5000 0.1250 0.0000
vt 0.2500 0.0000 0.0000
vt 0.1757 1.0000 0.0000
vt 0.0000 0.5211 0.0000
vt 0.9959 0.2497 0.0000
# 23 texture coords

o 1er_étage
g 1er_étage
usemtl wire_145028177
s 2
f 80/72/31 81/73/32 82/74/33 83/75/34 
s 4
f 84/76/35 85/77/36 86/75/37 87/78/38 88/72/39 89/73/40 
s 8
f 80/76/31 84/77/35 89/79/40 90/80/41 
s 32
f 91/76/42 86/77/37 85/75/36 83/72/34 82/81/33 92/82/33 
s 64
f 83/76/34 85/77/36 84/75/35 80/72/31 
s 8
f 89/79/40 88/75/39 93/83/43 94/84/44 
f 95/83/45 96/85/46 97/86/47 98/87/48 99/84/49 
f 100/85/50 101/72/51 102/88/32 103/89/52 104/86/53 
f 102/88/32 81/73/32 105/90/54 103/89/52 
f 105/90/54 106/87/55 104/86/53 103/89/52 
s off
f 100/85/50 104/86/53 97/86/47 96/85/46 
f 104/86/53 106/87/55 98/87/48 97/86/47 
f 106/87/55 94/84/44 99/84/49 98/87/48 
f 94/84/44 93/83/43 95/83/45 99/84/49 
f 93/83/43 88/75/39 87/75/38 
s 2
f 102/91/32 91/77/42 92/92/33 
f 81/73/32 102/91/32 92/92/33 82/74/33 
f 102/91/32 101/76/51 107/93/56 91/77/42 
s 8
f 89/79/40 94/84/44 106/87/55 105/90/54 90/80/41 
s off
f 107/76/56 101/76/51 100/85/50 96/85/46 
f 108/94/57 91/76/42 107/76/56 96/85/46 
f 96/85/46 95/83/45 86/75/37 91/76/42 108/94/57 
f 95/83/45 87/75/38 86/75/37 
f 87/75/38 95/83/45 93/83/43 
s 8
f 105/90/54 81/73/32 80/76/31 90/80/41 
# 21 polygons - 4 triangles

#
# object 2e_étage
#

v  -18.7204 33.3463 11.7866
v  -19.4071 33.3463 11.2876
v  -20.2559 33.3463 11.2876
v  -20.9426 33.3463 11.7866
v  -21.2050 33.3463 12.5938
v  -20.9426 33.3463 13.4011
v  -20.2559 33.3463 13.9001
v  -19.4071 33.3463 13.9001
v  -18.7204 33.3463 13.4011
v  -18.4581 33.3463 12.5938
v  -18.7204 33.2498 13.4011
v  -18.4581 33.2498 12.5938
v  -19.4071 33.2498 13.9001
v  -20.2559 33.2498 13.9001
v  -20.9426 33.2498 13.4011
v  -21.2050 33.2498 12.5938
v  -20.9426 33.2498 11.7866
v  -20.2559 33.2498 11.2876
v  -19.4071 33.2498 11.2876
v  -18.7204 33.2498 11.7866
v  -18.7204 33.1533 13.4011
v  -18.4581 33.1533 12.5938
v  -19.4071 33.1533 13.9001
v  -20.2559 33.1533 13.9001
v  -20.9426 33.1533 13.4011
v  -21.2050 33.1533 12.5938
v  -20.9426 33.1533 11.7866
v  -20.2559 33.1533 11.2876
v  -19.4071 33.1533 11.2876
v  -18.7204 33.1533 11.7866
v  -18.7204 33.0568 13.4011
v  -18.4581 33.0568 12.5938
v  -19.4071 33.0568 13.9001
v  -20.2559 33.0568 13.9001
v  -20.9426 33.0568 13.4011
v  -21.2050 33.0568 12.5938
v  -20.9426 33.0568 11.7866
v  -20.2559 33.0568 11.2876
v  -19.4071 33.0568 11.2876
v  -18.7204 33.0568 11.7866
v  -18.7204 32.9604 13.4011
v  -18.4581 32.9604 12.5938
v  -19.4071 32.9604 13.9001
v  -20.2559 32.9604 13.9001
v  -20.9426 32.9604 13.4011
v  -21.2050 32.9604 12.5938
v  -20.9426 32.9604 11.7866
v  -20.2559 32.9604 11.2876
v  -19.4071 32.9604 11.2876
v  -18.7204 32.9604 11.7866
v  -21.3631 33.4433 10.0817
v  -21.3685 39.1478 10.0817
v  -17.0612 39.1478 10.0817
v  -17.0558 33.4433 10.0817
v  -21.3631 33.4433 14.7654
v  -17.0558 33.4433 14.7654
v  -17.0612 39.1478 14.7654
v  -21.3685 39.1478 14.7654
# 58 vertices

vn 0.6191 0.6438 -0.4498
vn 0.2365 0.6437 -0.7278
vn -0.2365 0.6437 -0.7278
vn -0.6191 0.6437 -0.4498
vn -0.7652 0.6438 -0.0000
vn -0.6191 0.6438 0.4498
vn -0.2365 0.6437 0.7278
vn 0.2364 0.6438 0.7278
vn 0.6191 0.6438 0.4498
vn 0.7652 0.6438 0.0000
vn 0.8090 0.0000 0.5878
vn 1.0000 0.0000 0.0000
vn 0.3090 0.0000 0.9511
vn -0.3090 0.0000 0.9511
vn -0.8090 0.0000 0.5878
vn -1.0000 -0.0000 -0.0000
vn -0.8090 -0.0000 -0.5878
vn -0.3090 -0.0000 -0.9511
vn 0.3090 -0.0000 -0.9511
vn 0.8090 -0.0000 -0.5878
vn 0.6191 -0.6438 0.4498
vn 0.7652 -0.6438 0.0000
vn 0.2364 -0.6438 0.7278
vn -0.2365 -0.6437 0.7278
vn -0.6191 -0.6438 0.4498
vn -0.7652 -0.6438 -0.0000
vn -0.6191 -0.6437 -0.4498
vn -0.2365 -0.6437 -0.7278
vn 0.2365 -0.6437 -0.7278
vn 0.6191 -0.6438 -0.4498
vn -0.5771 -0.5776 -0.5774
vn -0.5776 0.5771 -0.5773
vn 0.5771 0.5776 -0.5774
vn 0.5776 -0.5771 -0.5773
vn -0.5771 -0.5776 0.5774
vn 0.5776 -0.5771 0.5773
vn 0.5771 0.5776 0.5774
vn -0.5776 0.5771 0.5773
# 38 vertex normals

vt 0.0601 0.0000 0.6180
vt -0.0500 0.2000 1.0000
vt 0.0500 0.2000 1.0000
vt 0.1500 0.2000 1.0000
vt 0.2500 0.2000 1.0000
vt 0.3500 0.2000 1.0000
vt 0.4500 0.2000 1.0000
vt 0.5500 0.2000 1.0000
vt 0.6500 0.2000 1.0000
vt 0.7661 0.0072 1.0249
vt 0.7500 0.2000 1.0000
vt 0.6500 0.4000 1.0000
vt 0.7500 0.4000 1.0000
vt 0.5500 0.4000 1.0000
vt 0.4500 0.4000 1.0000
vt 0.3500 0.4000 1.0000
vt 0.2500 0.4000 1.0000
vt 0.1500 0.4000 1.0000
vt 0.0500 0.4000 1.0000
vt -0.0500 0.4000 1.0000
vt 0.9500 0.2000 1.0000
vt 0.8500 0.2000 1.0000
vt 0.8500 0.4000 1.0000
vt 0.9500 0.4000 1.0000
vt 0.6500 0.6000 1.0000
vt 0.7500 0.6000 1.0000
vt 0.5500 0.6000 1.0000
vt 0.4500 0.6000 1.0000
vt 0.3500 0.6000 1.0000
vt 0.2500 0.6000 1.0000
vt 0.1500 0.6000 1.0000
vt 0.0500 0.6000 1.0000
vt -0.0500 0.6000 1.0000
vt 0.8500 0.6000 1.0000
vt 0.9500 0.6000 1.0000
vt 0.6500 0.8000 1.0000
vt 0.7500 0.8000 1.0000
vt 0.5500 0.8000 1.0000
vt 0.4500 0.8000 1.0000
vt 0.3500 0.8000 1.0000
vt 0.2500 0.8000 1.0000
vt 0.1500 0.8000 1.0000
vt 0.0500 0.8000 1.0000
vt -0.0500 0.8000 1.0000
vt 0.8500 0.8000 1.0000
vt 0.9500 0.8000 1.0000
vt 0.6500 1.0000 1.0000
vt 0.7500 1.0000 1.0000
vt 0.5500 1.0000 1.0000
vt 0.4500 1.0000 1.0000
vt 0.3500 1.0000 1.0000
vt 0.2500 1.0000 1.0000
vt 0.1500 1.0000 1.0000
vt 0.0500 1.0000 1.0000
vt -0.0500 1.0000 1.0000
vt 0.8500 1.0000 1.0000
vt 0.9500 1.0000 1.0000
vt 1.0000 0.0000 0.0000
vt 1.0000 1.0000 0.0000
vt 0.0000 1.0000 0.0000
vt 0.0000 0.0000 0.0000
# 61 texture coords

o 2e_étage
g 2e_étage
usemtl wire_214228153
s 9
f 109/95/58 110/96/59 111/97/60 112/98/61 113/99/62 114/100/63 115/101/64 116/102/65 117/103/66 118/104/67 
s 8
f 118/105/67 117/103/66 119/106/68 120/107/69 
f 117/103/66 116/102/65 121/108/70 119/106/68 
f 116/102/65 115/101/64 122/109/71 121/108/70 
f 115/101/64 114/100/63 123/110/72 122/109/71 
f 114/100/63 113/99/62 124/111/73 123/110/72 
f 113/99/62 112/98/61 125/112/74 124/111/73 
f 112/98/61 111/97/60 126/113/75 125/112/74 
f 111/97/60 110/96/59 127/114/76 126/113/75 
f 110/115/59 109/116/58 128/117/77 127/118/76 
f 109/116/58 118/105/67 120/107/69 128/117/77 
f 120/107/69 119/106/68 129/119/68 130/120/69 
f 119/106/68 121/108/70 131/121/70 129/119/68 
f 121/108/70 122/109/71 132/122/71 131/121/70 
f 122/109/71 123/110/72 133/123/72 132/122/71 
f 123/110/72 124/111/73 134/124/73 133/123/72 
f 124/111/73 125/112/74 135/125/74 134/124/73 
f 125/112/74 126/113/75 136/126/75 135/125/74 
f 126/113/75 127/114/76 137/127/76 136/126/75 
f 127/118/76 128/117/77 138/128/77 137/129/76 
f 128/117/77 120/107/69 130/120/69 138/128/77 
f 130/120/69 129/119/68 139/130/68 140/131/69 
f 129/119/68 131/121/70 141/132/70 139/130/68 
f 131/121/70 132/122/71 142/133/71 141/132/70 
f 132/122/71 133/123/72 143/134/72 142/133/71 
f 133/123/72 134/124/73 144/135/73 143/134/72 
f 134/124/73 135/125/74 145/136/74 144/135/73 
f 135/125/74 136/126/75 146/137/75 145/136/74 
f 136/126/75 137/127/76 147/138/76 146/137/75 
f 137/129/76 138/128/77 148/139/77 147/140/76 
f 138/128/77 130/120/69 140/131/69 148/139/77 
f 140/131/69 139/130/68 149/141/78 150/142/79 
f 139/130/68 141/132/70 151/143/80 149/141/78 
f 141/132/70 142/133/71 152/144/81 151/143/80 
f 142/133/71 143/134/72 153/145/82 152/144/81 
f 143/134/72 144/135/73 154/146/83 153/145/82 
f 144/135/73 145/136/74 155/147/84 154/146/83 
f 145/136/74 146/137/75 156/148/85 155/147/84 
f 146/137/75 147/138/76 157/149/86 156/148/85 
f 147/140/76 148/139/77 158/150/87 157/151/86 
f 148/139/77 140/131/69 150/142/79 158/150/87 
s 1
f 158/150/87 150/142/79 149/141/78 151/143/80 152/144/81 153/145/82 154/146/83 155/147/84 156/148/85 157/149/86 
s 2
f 159/152/88 160/153/89 161/154/90 162/155/91 
s 4
f 163/155/92 164/152/93 165/153/94 166/154/95 
s 8
f 159/155/88 162/152/91 164/153/93 163/154/92 
s 16
f 162/155/91 161/152/90 165/153/94 164/154/93 
s 32
f 161/155/90 160/152/89 166/153/95 165/154/94 
s 64
f 160/155/89 159/152/88 163/153/92 166/154/95 
# 48 polygons

